<?xml version="1.0" encoding="utf-8"?>
<!-- Generator: Adobe Illustrator 16.0.0, SVG Export Plug-In . SVG Version: 6.00 Build 0)  -->
<!DOCTYPE svg PUBLIC "-//W3C//DTD SVG 1.1//EN" "http://www.w3.org/Graphics/SVG/1.1/DTD/svg11.dtd">
<svg version="1.1" id="图层_1" xmlns="http://www.w3.org/2000/svg" xmlns:xlink="http://www.w3.org/1999/xlink" x="0px" y="0px"
	 width="224.094px" height="292.007px" viewBox="0 0 224.094 292.007" enable-background="new 0 0 224.094 292.007"
	 xml:space="preserve">
<g>
	<rect fill="#231815" width="224.094" height="292.007"/>
</g>
<g>
	<g>
		<g>
			<path fill="#FFFFFF" d="M48.687,49.415c-1.008,0-1.824,0.818-1.824,1.827v11.142c0,0.017,0.014,0.03,0.03,0.03
				c0.007,0,0.011,0.005,0.011,0.011l0.119,37.612c0.002,0.676,0.819,1.014,1.296,0.535l10.398-10.415
				c0.823-0.825,1.287-1.952,1.282-3.119l-0.102-24.015c-0.001-0.336,0.271-0.609,0.605-0.609h23.47
				c1.166,0,2.291-0.467,3.115-1.292l10.397-10.415c0.476-0.477,0.139-1.292-0.534-1.292H48.687z"/>
		</g>
	</g>
	<g>
		<g>
			<path fill="#FFFFFF" d="M126.64,49.415c-0.674,0-1.011,0.815-0.534,1.292l10.398,10.415c0.824,0.825,1.949,1.292,3.115,1.292
				h23.467c0.335,0,0.607,0.273,0.605,0.609l-0.101,24.015c-0.005,1.167,0.459,2.294,1.283,3.119l10.397,10.415
				c0.478,0.479,1.295,0.141,1.297-0.535l0.12-37.612c0-0.006,0.004-0.01,0.01-0.011c0.016-0.003,0.031-0.015,0.031-0.03V51.242
				c0-1.009-0.817-1.827-1.825-1.827H126.64z"/>
		</g>
	</g>
	<g>
		<g>
			<path fill="#FFFFFF" d="M46.862,166.315c0,0.006-0.005,0.012-0.011,0.011c-0.018-0.004-0.031,0.013-0.031,0.031v11.139
				c0,1.01,0.817,1.828,1.825,1.828h11.153H96.91c0.673,0,1.01-0.815,0.533-1.293l-10.397-10.413
				c-0.824-0.825-1.949-1.292-3.114-1.292H60.462c-0.335,0-0.607-0.273-0.605-0.609l0.101-24.016
				c0.005-1.167-0.459-2.294-1.282-3.12l-10.397-10.414c-0.478-0.478-1.294-0.142-1.297,0.535L46.862,166.315z"/>
		</g>
	</g>
	<g>
		<g>
			<path fill="#FFFFFF" d="M164.833,138.582c-0.824,0.825-1.288,1.953-1.283,3.12l0.102,24.015c0.002,0.336-0.27,0.611-0.605,0.609
				h-23.47c-1.166,0-2.291,0.467-3.115,1.292l-10.396,10.413c-0.477,0.478-0.139,1.293,0.534,1.293h37.111h11.154
				c1.008,0,1.825-0.818,1.825-1.828v-11.139c0-0.018-0.016-0.031-0.033-0.031c0,0-0.011-0.005-0.011-0.011l-0.119-37.612
				c-0.002-0.676-0.819-1.014-1.296-0.535L164.833,138.582z"/>
		</g>
	</g>
	<g>
		<g>
			<path fill="#FFFFFF" d="M111.754,75.369c-0.007,0.001-0.051,0.076-0.131,0.223c-2.143,3.945-29.751,59.201-34.859,69.429
				c-0.374,0.747,0.179,1.622,1.014,1.622h14.531c1.112,0,2.134-0.643,2.617-1.646l16.564-34.401
				c0.104-0.218,0.415-0.214,0.515,0.006l15.552,34.377c0.457,1.011,1.47,1.665,2.577,1.665h15.595c0.836,0,1.39-0.875,1.016-1.623
				C141.452,134.406,111.988,75.343,111.754,75.369"/>
		</g>
	</g>
	<g>
		<path fill="#FFFFFF" d="M54.18,216.169c-0.07,0.142-0.212,0.142-0.283,0l-7.533-16.263h4.567l3.272,7.504l3.179-7.504h4.355
			L54.18,216.169z"/>
	</g>
	<g>
		<path fill="#FFFFFF" d="M73.625,199.906h4.285v16.098h-4.285V199.906z"/>
	</g>
	<g>
		<path fill="#FFFFFF" d="M90.009,213.258l3.107-2.344c0.777,0.971,1.742,1.752,3.343,1.752c1.271,0,2.025-0.379,2.025-1.278
			c0-0.687-0.519-1.019-1.578-1.373l-1.883-0.64c-2.33-0.781-3.979-2.201-3.979-4.852c0-3.173,2.614-4.807,5.463-4.807
			c2.825,0,4.521,1.019,5.462,2.131l-2.448,2.58c-0.659-0.686-1.507-1.159-2.778-1.159c-1.036,0-1.554,0.474-1.554,1.112
			c0,0.615,0.353,0.924,1.13,1.184l2.118,0.71c3.202,1.065,4.285,2.604,4.285,4.876c0,2.959-1.836,5.09-6.073,5.09
			C93.046,216.24,90.998,214.583,90.009,213.258z"/>
	</g>
	<g>
		<path fill="#FFFFFF" d="M115.346,199.906h4.285v16.098h-4.285V199.906z"/>
	</g>
	<g>
		<path fill="#FFFFFF" d="M132.253,207.955c0-4.853,3.979-8.238,8.594-8.238c4.614,0,8.594,3.386,8.594,8.238
			c0,4.854-3.979,8.262-8.594,8.262C136.232,216.217,132.253,212.809,132.253,207.955z M145.062,207.955
			c0-2.533-1.531-4.498-4.215-4.498s-4.215,1.965-4.215,4.498s1.531,4.521,4.215,4.521S145.062,210.488,145.062,207.955z"/>
	</g>
	<g>
		<path fill="#FFFFFF" d="M166.055,207.979v8.025h-4.025v-16.311c0-0.142,0.07-0.26,0.329-0.047l10.053,8.332v-8.072h4.026v16.334
			c0,0.189-0.071,0.26-0.33,0.047L166.055,207.979z"/>
	</g>
	<g>
		<path fill="#FFFFFF" d="M46.364,239.609l3.107-2.343c0.777,0.97,1.742,1.751,3.344,1.751c1.271,0,2.024-0.378,2.024-1.277
			c0-0.687-0.518-1.018-1.577-1.373l-1.884-0.639c-2.331-0.781-3.979-2.202-3.979-4.854c0-3.172,2.613-4.805,5.462-4.805
			c2.825,0,4.521,1.018,5.462,2.13l-2.448,2.58c-0.659-0.687-1.507-1.159-2.778-1.159c-1.036,0-1.554,0.473-1.554,1.111
			c0,0.616,0.353,0.924,1.13,1.184l2.119,0.711c3.202,1.064,4.285,2.604,4.285,4.877c0,2.959-1.837,5.088-6.075,5.088
			C49.401,242.592,47.352,240.936,46.364,239.609z"/>
	</g>
	<g>
		<path fill="#FFFFFF" d="M73.445,229.881h-4.237v-3.621h12.76v3.621H77.73v12.475h-4.285V229.881z"/>
	</g>
	<g>
		<path fill="#FFFFFF" d="M92.816,236.131v-9.871h4.285v9.823c0,1.823,0.847,2.864,2.66,2.864c1.813,0,2.66-1.041,2.66-2.864v-9.823
			h4.285v9.871c0,4.332-2.942,6.461-6.945,6.461S92.816,240.463,92.816,236.131z"/>
	</g>
	<g>
		<path fill="#FFFFFF" d="M118.942,226.26h6.191c4.615,0,8.099,3.053,8.099,8.048s-3.483,8.048-8.099,8.048h-6.191V226.26z
			 M124.663,238.711c2.59,0,4.19-1.729,4.19-4.403s-1.601-4.403-4.19-4.403h-1.437v8.807H124.663z"/>
	</g>
	<g>
		<path fill="#FFFFFF" d="M144.763,226.26h4.285v16.096h-4.285V226.26z"/>
	</g>
	<g>
		<path fill="#FFFFFF" d="M160.541,234.308c0-4.853,3.979-8.237,8.594-8.237s8.593,3.385,8.593,8.237s-3.979,8.262-8.593,8.262
			S160.541,239.16,160.541,234.308z M173.348,234.308c0-2.532-1.529-4.497-4.214-4.497c-2.684,0-4.215,1.965-4.215,4.497
			s1.531,4.521,4.215,4.521C171.819,238.829,173.348,236.84,173.348,234.308z"/>
	</g>
</g>
</svg>
