<?xml version="1.0" encoding="utf-8"?>
<!-- Generator: Adobe Illustrator 16.0.0, SVG Export Plug-In . SVG Version: 6.00 Build 0)  -->
<!DOCTYPE svg PUBLIC "-//W3C//DTD SVG 1.1//EN" "http://www.w3.org/Graphics/SVG/1.1/DTD/svg11.dtd">
<svg version="1.1" id="图层_1" xmlns="http://www.w3.org/2000/svg" xmlns:xlink="http://www.w3.org/1999/xlink" x="0px" y="0px"
	 width="351.365px" height="295.198px" viewBox="0 0 351.365 295.198"
	 xml:space="preserve">
<g>
	<rect y="0.001" fill="#000000"/>
</g>
<g>
	<g>
		<g>
			<path fill="#FFFFFF" d="M112.595,51.876c-1.008,0-1.825,0.818-1.825,1.828v11.141c0,0.017,0.014,0.03,0.031,0.03
				c0,0,0.01,0.005,0.01,0.011l0.12,37.612c0.002,0.676,0.819,1.014,1.296,0.535l10.397-10.414c0.824-0.825,1.287-1.953,1.282-3.12
				l-0.101-24.015c-0.002-0.336,0.27-0.609,0.605-0.609h23.47c1.165,0,2.29-0.467,3.114-1.292l10.398-10.415
				c0.476-0.476,0.138-1.292-0.535-1.292H112.595z"/>
		</g>
	</g>
	<g>
		<g>
			<path fill="#FFFFFF" d="M190.548,51.876c-0.674,0-1.012,0.816-0.535,1.292l10.398,10.415c0.824,0.825,1.949,1.292,3.115,1.292
				h23.468c0.335,0,0.606,0.273,0.605,0.609L227.5,89.499c-0.005,1.167,0.458,2.295,1.282,3.12l10.398,10.414
				c0.478,0.479,1.294,0.141,1.296-0.535l0.119-37.612c0-0.006,0.005-0.01,0.011-0.011c0.017-0.003,0.031-0.015,0.031-0.03V53.704
				c0-1.01-0.817-1.828-1.825-1.828H190.548z"/>
		</g>
	</g>
	<g>
		<g>
			<path fill="#FFFFFF" d="M110.769,168.776c0,0.006-0.005,0.012-0.01,0.011c-0.018-0.004-0.031,0.013-0.031,0.031v11.14
				c0,1.01,0.816,1.827,1.825,1.827h11.152h37.111c0.673,0,1.01-0.815,0.534-1.292l-10.397-10.414
				c-0.824-0.825-1.949-1.292-3.115-1.292h-23.468c-0.336,0-0.607-0.273-0.606-0.609l0.101-24.016
				c0.006-1.167-0.459-2.294-1.282-3.12l-10.397-10.414c-0.478-0.479-1.294-0.141-1.296,0.535L110.769,168.776z"/>
		</g>
	</g>
	<g>
		<g>
			<path fill="#FFFFFF" d="M228.74,141.043c-0.824,0.825-1.287,1.953-1.282,3.12l0.102,24.015c0.001,0.336-0.271,0.611-0.605,0.609
				h-23.471c-1.166,0-2.29,0.467-3.114,1.292l-10.397,10.414c-0.476,0.477-0.139,1.292,0.534,1.292h37.111h11.154
				c1.008,0,1.824-0.817,1.824-1.827v-11.139c0-0.019-0.014-0.032-0.031-0.032c-0.006,0-0.011-0.005-0.011-0.011l-0.119-37.612
				c-0.003-0.676-0.819-1.015-1.297-0.535L228.74,141.043z"/>
		</g>
	</g>
	<g>
		<g>
			<path fill="#FFFFFF" d="M175.663,77.83c-0.008,0.001-0.052,0.077-0.131,0.223c-2.143,3.945-29.752,59.201-34.859,69.429
				c-0.375,0.748,0.178,1.622,1.014,1.622h14.53c1.113,0,2.134-0.643,2.617-1.646l16.564-34.401
				c0.104-0.218,0.416-0.214,0.516,0.006l15.551,34.377c0.458,1.011,1.47,1.665,2.578,1.665h15.595c0.836,0,1.389-0.875,1.015-1.623
				C205.36,136.867,175.896,77.805,175.663,77.83"/>
		</g>
	</g>
	<g>
		<g>
			<path fill="#FFFFFF" d="M56.734,242.8c-0.148,0.298-0.445,0.298-0.593,0l-15.83-34.168h9.597l6.876,15.766l6.678-15.766h9.151
				L56.734,242.8z"/>
		</g>
	</g>
	<g>
		<g>
			<path fill="#FFFFFF" d="M97.045,208.632h9.003v33.819h-9.003V208.632z"/>
		</g>
	</g>
	<g>
		<g>
			<path fill="#FFFFFF" d="M130.961,236.682l6.529-4.924c1.633,2.039,3.661,3.681,7.024,3.681c2.671,0,4.254-0.796,4.254-2.686
				c0-1.442-1.088-2.139-3.314-2.885l-3.957-1.343c-4.897-1.642-8.359-4.626-8.359-10.195c0-6.665,5.49-10.097,11.476-10.097
				c5.937,0,9.498,2.139,11.477,4.477l-5.145,5.421c-1.385-1.442-3.166-2.437-5.837-2.437c-2.177,0-3.265,0.994-3.265,2.337
				c0,1.293,0.741,1.939,2.374,2.487l4.453,1.491c6.727,2.238,9.003,5.472,9.003,10.245c0,6.217-3.859,10.693-12.764,10.693
				C137.342,242.948,133.039,239.467,130.961,236.682z"/>
		</g>
	</g>
	<g>
		<g>
			<path fill="#FFFFFF" d="M183.699,208.632h9.003v33.819h-9.003V208.632z"/>
		</g>
	</g>
	<g>
		<g>
			<path fill="#FFFFFF" d="M218.717,225.541c0-10.195,8.359-17.308,18.056-17.308c9.695,0,18.056,7.112,18.056,17.308
				c0,10.196-8.36,17.358-18.056,17.358C227.077,242.899,218.717,235.737,218.717,225.541z M245.627,225.541
				c0-5.321-3.216-9.449-8.854-9.449s-8.854,4.128-8.854,9.449s3.216,9.5,8.854,9.5S245.627,230.862,245.627,225.541z"/>
		</g>
	</g>
	<g>
		<g>
			<path fill="#FFFFFF" d="M289.239,225.591v16.86h-8.459v-34.268c0-0.298,0.148-0.547,0.692-0.099l21.123,17.506v-16.959h8.459
				v34.316c0,0.398-0.148,0.547-0.693,0.1L289.239,225.591z"/>
		</g>
	</g>
</g>
</svg>
