<?xml version="1.0" encoding="utf-8"?>
<!-- Generator: Adobe Illustrator 16.0.0, SVG Export Plug-In . SVG Version: 6.00 Build 0)  -->
<!DOCTYPE svg PUBLIC "-//W3C//DTD SVG 1.1//EN" "http://www.w3.org/Graphics/SVG/1.1/DTD/svg11.dtd">
<svg version="1.1" id="图层_1" xmlns="http://www.w3.org/2000/svg" xmlns:xlink="http://www.w3.org/1999/xlink" x="0px" y="0px"
	 width="1155.135px" height="340.165px" viewBox="0 0 1155.135 340.165" enable-background="new 0 0 1155.135 340.165"
	 xml:space="preserve">
<g>
	<rect x="0.001" fill="#231815" width="1155.134" height="340.165"/>
</g>
<g>
	<g>
		<g>
			<path fill="#FFFFFF" d="M39.125,68.84c-1.57,0-2.844,1.275-2.844,2.848v17.365c0,0.026,0.021,0.048,0.048,0.048
				c0.009,0,0.016,0.007,0.016,0.016l0.187,58.625c0.003,1.054,1.277,1.581,2.021,0.835l16.206-16.233
				c1.284-1.287,2.007-3.043,1.999-4.863L56.598,90.05c-0.002-0.524,0.421-0.95,0.944-0.949h36.582c1.816,0,3.57-0.728,4.854-2.014
				l16.207-16.233c0.741-0.743,0.216-2.014-0.833-2.014H39.125z"/>
		</g>
	</g>
	<g>
		<g>
			<path fill="#FFFFFF" d="M160.627,68.84c-1.049,0-1.575,1.271-0.833,2.014l16.208,16.233c1.285,1.287,3.038,2.014,4.855,2.014
				h36.578c0.522,0,0.947,0.425,0.944,0.949l-0.157,37.431c-0.008,1.819,0.714,3.577,1.999,4.863l16.208,16.233
				c0.744,0.745,2.017,0.219,2.02-0.835l0.188-58.625c0-0.009,0.006-0.014,0.015-0.016c0.025-0.005,0.049-0.023,0.049-0.048V71.688
				c0-1.573-1.273-2.848-2.845-2.848H160.627z"/>
		</g>
	</g>
	<g>
		<g>
			<path fill="#FFFFFF" d="M36.279,251.048c0,0.009-0.007,0.018-0.016,0.017c-0.027-0.005-0.049,0.02-0.049,0.048v17.364
				c0,1.574,1.273,2.849,2.845,2.849h17.384h57.844c1.049,0,1.575-1.271,0.833-2.014l-16.206-16.232
				c-1.285-1.287-3.038-2.014-4.855-2.014H57.479c-0.523,0-0.947-0.426-0.945-0.95l0.157-37.433
				c0.008-1.818-0.716-3.575-1.999-4.863l-16.206-16.232c-0.744-0.745-2.017-0.22-2.021,0.834L36.279,251.048z"/>
		</g>
	</g>
	<g>
		<g>
			<path fill="#FFFFFF" d="M220.157,207.821c-1.284,1.286-2.006,3.044-1.999,4.863l0.158,37.431c0.002,0.523-0.421,0.953-0.943,0.95
				H180.79c-1.816,0-3.57,0.727-4.854,2.014l-16.206,16.232c-0.742,0.743-0.216,2.014,0.833,2.014h57.845h17.385
				c1.571,0,2.845-1.275,2.845-2.849v-17.361c0-0.028-0.023-0.05-0.051-0.05c-0.01,0-0.017-0.007-0.017-0.017l-0.187-58.625
				c-0.003-1.054-1.276-1.581-2.021-0.834L220.157,207.821z"/>
		</g>
	</g>
	<g>
		<g>
			<path fill="#FFFFFF" d="M137.427,109.294c-0.012,0.001-0.08,0.119-0.203,0.346c-3.341,6.149-46.374,92.275-54.336,108.216
				c-0.583,1.166,0.278,2.528,1.58,2.528h22.649c1.734,0,3.326-1.001,4.08-2.566l25.817-53.621c0.163-0.339,0.648-0.333,0.804,0.01
				l24.239,53.582c0.713,1.576,2.291,2.595,4.018,2.595h24.307c1.304,0,2.165-1.363,1.583-2.53
				C183.714,201.312,137.79,109.253,137.427,109.294"/>
		</g>
	</g>
	<g>
		<g>
			<g>
				<path fill="#FFFFFF" d="M354.4,227.055c-0.446,0.897-1.338,0.897-1.785,0l-47.586-102.713h28.85l20.67,47.394l20.075-47.394
					h27.512L354.4,227.055z"/>
			</g>
		</g>
		<g>
			<g>
				<path fill="#FFFFFF" d="M475.582,124.341h27.063v101.667h-27.063V124.341z"/>
			</g>
		</g>
		<g>
			<g>
				<path fill="#FFFFFF" d="M577.535,208.665l19.63-14.802c4.907,6.13,11.005,11.063,21.116,11.063
					c8.03,0,12.789-2.392,12.789-8.073c0-4.336-3.271-6.43-9.964-8.672l-11.896-4.037c-14.722-4.934-25.131-13.904-25.131-30.649
					c0-20.035,16.506-30.351,34.499-30.351c17.845,0,28.552,6.428,34.5,13.456l-15.465,16.296
					c-4.164-4.335-9.518-7.326-17.548-7.326c-6.543,0-9.814,2.991-9.814,7.026c0,3.889,2.23,5.832,7.138,7.476l13.384,4.485
					c20.225,6.728,27.064,16.446,27.064,30.799c0,18.689-11.599,32.145-38.366,32.145
					C596.719,227.503,583.781,217.038,577.535,208.665z"/>
			</g>
		</g>
		<g>
			<g>
				<path fill="#FFFFFF" d="M736.073,124.341h27.064v101.667h-27.064V124.341z"/>
			</g>
		</g>
		<g>
			<g>
				<path fill="#FFFFFF" d="M841.343,175.174c0-30.649,25.132-52.029,54.278-52.029s54.279,21.38,54.279,52.029
					c0,30.65-25.132,52.18-54.279,52.18S841.343,205.824,841.343,175.174z M922.239,175.174c0-15.997-9.666-28.407-26.618-28.407
					s-26.618,12.41-26.618,28.407c0,15.998,9.666,28.557,26.618,28.557S922.239,191.172,922.239,175.174z"/>
			</g>
		</g>
		<g>
			<g>
				<path fill="#FFFFFF" d="M1053.342,175.324v50.685h-25.429V122.995c0-0.896,0.446-1.645,2.082-0.298l63.497,52.627v-50.982
					h25.429v103.162c0,1.196-0.446,1.645-2.081,0.3L1053.342,175.324z"/>
			</g>
		</g>
	</g>
</g>
</svg>
